<svg xmlns="http://www.w3.org/2000/svg" width="448" height="241" viewBox="0 0 448 241">
  <g id="Group_2" data-name="Group 2" transform="translate(-552 -1247)">
    <path id="Exclusion_7" data-name="Exclusion 7" d="M164.267,202H134.4V142.148H97.067V127.185H82.134V104.74h-22.4V89.778H44.8V74.815H29.867V59.852H7.467V44.889H0V0H14.934V14.963H44.8V29.926h59.733V14.963H246.4V29.926h29.867V22.445H291.2V7.482H418.134V22.445H448V89.778H380.8V104.74h22.4v22.445h-112V104.74H261.333v22.445h-22.4V149.63h14.934v14.963H224V127.185H179.2v29.926H164.267v14.962H149.334v14.963h14.934V202Zm156.8-180.49v15.9H336V21.51Z" transform="translate(552 1247)" fill="#fff"/>
    <rect id="Rectangle_276" data-name="Rectangle 276" width="244" height="16" transform="translate(625 1448)" fill="#fff"/>
    <rect id="Rectangle_277" data-name="Rectangle 277" width="46" height="16" transform="translate(604.314 1420.159) rotate(45)" fill="#fff"/>
    <rect id="Rectangle_278" data-name="Rectangle 278" width="46" height="16" transform="translate(900.841 1431.473) rotate(135)" fill="#fff"/>
    <circle id="Ellipse_8" data-name="Ellipse 8" cx="12" cy="12" r="12" transform="translate(649 1464)" fill="#fff"/>
    <circle id="Ellipse_9" data-name="Ellipse 9" cx="12" cy="12" r="12" transform="translate(817 1464)" fill="#fff"/>
  </g>
</svg>
