<?xml version="1.0" encoding="utf-8"?>
<!-- Generator: Adobe Illustrator 25.1.0, SVG Export Plug-In . SVG Version: 6.00 Build 0)  -->
<svg version="1.1" id="Layer_1" xmlns="http://www.w3.org/2000/svg" xmlns:xlink="http://www.w3.org/1999/xlink" x="0px" y="0px"
	 viewBox="0 0 1169 282" style="enable-background:new 0 0 1169 282;" xml:space="preserve">
<style type="text/css">
	.st0{opacity:0.5;}
	.st1{fill:#FFFFFF;}
	.st2{opacity:0.1;fill:#FFFFFF;enable-background:new    ;}
	.st3{opacity:0.2;}
</style>
<g id="Group_9" transform="translate(1286 1248)">
	<g id="Group_5" transform="translate(-1294 -2752.391)">
		<g id="Group_3" transform="translate(8 1735.531)" class="st0">
			<path id="Union_16" class="st1" d="M292.2,30.9v-5.2h50.4v5.2H292.2z M337.6,25.7v-5.2h15.1v5.2H337.6z M282.2,25.7v-5.2h15.1
				v5.2H282.2z M347.7,20.5v-5.2H1169v5.2H347.7z M241.9,20.5v-5.2h45.3v5.2H241.9z M0,20.5v-5.2h191.5v-5.2h5V5h10.1v-5.2h25.2V5h5
				v5.2h-10.1V5h-15.1v5.2h-10.1v5.2h-5v5.2H0z M231.8,15.4v-5.2h15.1v5.2H231.8z"/>
		</g>
		<rect id="Rectangle_290" x="13" y="1766.4" class="st2" width="5" height="5"/>
		<rect id="Rectangle_304" x="1086" y="1766.4" class="st2" width="5" height="5"/>
		<rect id="Rectangle_305" x="905" y="1776.4" class="st2" width="5" height="5"/>
		<rect id="Rectangle_291" x="33" y="1776.4" class="st2" width="26" height="5"/>
		<rect id="Rectangle_292" x="73" y="1761.4" class="st2" width="15" height="5"/>
		<rect id="Rectangle_295" x="235" y="1761.4" class="st2" width="15" height="5"/>
		<rect id="Rectangle_298" x="441" y="1761.4" class="st2" width="26" height="5"/>
		<rect id="Rectangle_301" x="678" y="1766.4" class="st2" width="16" height="5"/>
		<rect id="Rectangle_307" x="749" y="1781.4" class="st2" width="15" height="5"/>
		<rect id="Rectangle_306" x="859" y="1766.4" class="st2" width="16" height="5"/>
		<rect id="Rectangle_303" x="1162" y="1766.4" class="st2" width="15" height="5"/>
		<rect id="Rectangle_294" x="184" y="1781.4" class="st2" width="15" height="5"/>
		<rect id="Rectangle_302" x="991" y="1781.4" class="st2" width="15" height="5"/>
		<rect id="Rectangle_297" x="361" y="1781.4" class="st2" width="10" height="5"/>
		<rect id="Rectangle_293" x="114" y="1771.4" class="st2" width="10" height="5"/>
		<rect id="Rectangle_296" x="300" y="1776.4" class="st2" width="10" height="5"/>
		<rect id="Rectangle_300" x="819" y="1776.4" class="st2" width="10" height="5"/>
		<rect id="Rectangle_299" x="527" y="1776.4" class="st2" width="30" height="5"/>
	</g>
	<g id="Group_7" transform="translate(-2528 -2808)" class="st3">
		<rect id="Rectangle_329" x="2120" y="1608" class="st1" width="152" height="8"/>
		<rect id="Rectangle_331" x="2256" y="1600" class="st1" width="16" height="8"/>
		<rect id="Rectangle_332" x="2248" y="1592" class="st1" width="16" height="8"/>
		<rect id="Rectangle_330" x="2232" y="1584" class="st1" width="16" height="8"/>
		<rect id="Rectangle_325" x="2208" y="1568" class="st1" width="16" height="8"/>
		<rect id="Rectangle_321" x="2176" y="1568" class="st1" width="24" height="8"/>
		<rect id="Rectangle_322" x="2168" y="1576" class="st1" width="16" height="8"/>
		<rect id="Rectangle_323" x="2152" y="1584" class="st1" width="24" height="8"/>
		<rect id="Rectangle_324" x="2136" y="1592" class="st1" width="24" height="8"/>
		<rect id="Rectangle_326" x="2128" y="1600" class="st1" width="8" height="8"/>
		<rect id="Rectangle_327" x="2224" y="1576" class="st1" width="8" height="8"/>
		<rect id="Rectangle_328" x="2200" y="1560" class="st1" width="8" height="8"/>
	</g>
	<g id="Group_8" transform="translate(-3182 -2730)" class="st3">
		<rect id="Rectangle_329-2" x="2120" y="1608" class="st1" width="152" height="8"/>
		<rect id="Rectangle_331-2" x="2256" y="1600" class="st1" width="16" height="8"/>
		<rect id="Rectangle_332-2" x="2248" y="1592" class="st1" width="16" height="8"/>
		<rect id="Rectangle_330-2" x="2232" y="1584" class="st1" width="16" height="8"/>
		<rect id="Rectangle_325-2" x="2208" y="1568" class="st1" width="16" height="8"/>
		<rect id="Rectangle_321-2" x="2176" y="1568" class="st1" width="24" height="8"/>
		<rect id="Rectangle_322-2" x="2168" y="1576" class="st1" width="16" height="8"/>
		<rect id="Rectangle_323-2" x="2152" y="1584" class="st1" width="24" height="8"/>
		<rect id="Rectangle_324-2" x="2136" y="1592" class="st1" width="24" height="8"/>
		<rect id="Rectangle_326-2" x="2128" y="1600" class="st1" width="8" height="8"/>
		<rect id="Rectangle_327-2" x="2224" y="1576" class="st1" width="8" height="8"/>
		<rect id="Rectangle_328-2" x="2200" y="1560" class="st1" width="8" height="8"/>
	</g>
</g>
</svg>
